<svg width="100" height="100" viewBox="0 0 100 100" fill="none" xmlns="http://www.w3.org/2000/svg">
<circle cx="50" cy="50" r="50" fill="#FFC107"/>
<g clip-path="url(#clip0_44_132)">
<path d="M23 26.7961C23 24.6993 24.7424 23 26.8922 23H72.1078C74.2576 23 76 24.6993 76 26.7961V72.2039C76 74.3007 74.2576 76 72.1078 76H26.8922C24.7424 76 23 74.3007 23 72.2039V26.7961ZM39.3737 67.3676V43.4348H31.4204V67.3676H39.3737ZM35.3987 40.1654C38.1713 40.1654 39.8971 38.3303 39.8971 36.0314C39.8474 33.6828 38.1746 31.8974 35.4517 31.8974C32.7288 31.8974 30.95 33.6861 30.95 36.0314C30.95 38.3303 32.6758 40.1654 35.3457 40.1654H35.3987ZM51.6564 67.3676V54.0017C51.6564 53.2862 51.7094 52.5707 51.9214 52.0606C52.4945 50.6329 53.8029 49.1522 56.0024 49.1522C58.881 49.1522 60.0304 51.3451 60.0304 54.5648V67.3676H67.9837V53.6406C67.9837 46.2869 64.0618 42.8684 58.828 42.8684C54.6079 42.8684 52.7164 45.1871 51.6564 46.8202V46.903H51.6034C51.621 46.8753 51.6387 46.8477 51.6564 46.8202V43.4348H43.7064C43.8058 45.6807 43.7064 67.3676 43.7064 67.3676H51.6564Z" fill="black"/>
</g>
<defs>
<clipPath id="clip0_44_132">
<rect width="53" height="53" fill="white" transform="translate(23 23)"/>
</clipPath>
</defs>
</svg>
